<svg width="39" height="39" viewBox="0 0 39 39" fill="none" xmlns="http://www.w3.org/2000/svg">
<path d="M34.125 13V11.375L29.25 14.625L24.375 11.375V13L29.25 16.25L34.125 13ZM35.75 4.875H3.25C1.4625 4.875 0 6.3375 0 8.125V30.875C0 32.6625 1.4625 34.125 3.25 34.125H35.75C37.5375 34.125 38.9837 32.6625 38.9837 30.875L39 8.125C39 6.3375 37.5375 4.875 35.75 4.875ZM13 9.75C15.6975 9.75 17.875 11.9275 17.875 14.625C17.875 17.3225 15.6975 19.5 13 19.5C10.3025 19.5 8.125 17.3225 8.125 14.625C8.125 11.9275 10.3025 9.75 13 9.75ZM22.75 29.25H3.25V27.625C3.25 24.375 9.75 22.5875 13 22.5875C16.25 22.5875 22.75 24.375 22.75 27.625V29.25ZM35.75 19.5H22.75V9.75H35.75V19.5Z" fill="#21221C"/>
</svg>
