<svg width="29" height="29" viewBox="0 0 29 29" fill="none" xmlns="http://www.w3.org/2000/svg">
<path d="M2.28225 7.6647L13.1573 13.5067C13.5227 13.7025 13.9954 13.7953 14.471 13.7953C14.9466 13.7953 15.4193 13.7025 15.7847 13.5067L26.6597 7.6647C27.3687 7.28335 28.0386 5.8 26.738 5.8H2.2054C0.904754 5.8 1.57465 7.28335 2.28225 7.6647ZM26.9888 10.859L15.7847 16.6982C15.2917 16.9563 14.9466 16.9867 14.471 16.9867C13.9954 16.9867 13.6503 16.9563 13.1573 16.6982C12.6643 16.4401 2.8144 11.2766 2.00965 10.8576C1.44415 10.5618 1.44995 10.9083 1.44995 11.1751V21.75C1.44995 22.359 2.27065 23.2 2.89995 23.2H26.1C26.7293 23.2 27.55 22.359 27.55 21.75V11.1766C27.55 10.9098 27.5558 10.5632 26.9888 10.859Z" fill="#35362D"/>
</svg>
