<svg width="68" height="68" viewBox="0 0 68 68" fill="none" xmlns="http://www.w3.org/2000/svg">
<path d="M58.0463 48.5633L46.5288 38.0913C45.9844 37.5965 45.269 37.3326 44.5336 37.3553C43.7982 37.3781 43.1005 37.6856 42.5877 38.2132L35.8075 45.186C34.1755 44.8743 30.8945 43.8515 27.5172 40.4827C24.1398 37.1025 23.117 33.813 22.8138 32.1923L29.781 25.4093C30.3092 24.8969 30.6172 24.199 30.6399 23.4634C30.6627 22.7278 30.3983 22.0123 29.9028 21.4682L19.4337 9.9535C18.9379 9.40768 18.249 9.0766 17.5131 9.03057C16.7772 8.98454 16.0523 9.2272 15.4925 9.707L9.34416 14.9798C8.8543 15.4715 8.56193 16.1258 8.52249 16.8187C8.47999 17.527 7.66966 34.306 20.6803 47.3223C32.0307 58.6698 46.2483 59.5 50.164 59.5C50.7363 59.5 51.0877 59.483 51.1812 59.4773C51.8739 59.4385 52.5279 59.1449 53.0172 58.6528L58.2872 52.5017C58.7689 51.9436 59.0133 51.2193 58.9683 50.4835C58.9233 49.7476 58.5924 49.0586 58.0463 48.5633Z" fill="#35362D"/>
</svg>
