<svg width="19" height="19" viewBox="0 0 19 19" fill="none" xmlns="http://www.w3.org/2000/svg">
<path d="M10.2027 9.68884L2.93106 10.8916C2.84746 10.9054 2.76901 10.9409 2.70359 10.9944C2.63817 11.0479 2.5881 11.1175 2.5584 11.1963L0.0511771 17.8644C-0.18825 18.4777 0.457624 19.0623 1.0504 18.7671L18.4282 10.1421C18.5483 10.0824 18.6493 9.99063 18.7199 9.87715C18.7904 9.76367 18.8278 9.63294 18.8278 9.49957C18.8278 9.36621 18.7904 9.23548 18.7199 9.122C18.6493 9.00852 18.5483 8.91677 18.4282 8.85701L1.0504 0.232012C0.457624 -0.0621965 -0.18825 0.522387 0.0511771 1.13476L2.55937 7.80285C2.58906 7.88165 2.63914 7.9513 2.70456 8.00479C2.76997 8.05829 2.84843 8.09375 2.93203 8.10759L10.2037 9.3103C10.249 9.31749 10.2903 9.34049 10.3201 9.37518C10.3499 9.40987 10.3663 9.45398 10.3663 9.49957C10.3663 9.54517 10.3499 9.58927 10.3201 9.62396C10.2903 9.65865 10.249 9.68166 10.2037 9.68884H10.2027Z" fill="#E4E5D6"/>
</svg>
